<!-- Generated by IcoMoon.io -->
<svg version="1.1" xmlns="http://www.w3.org/2000/svg" width="23" height="32" viewBox="0 0 23 32">
<title>Book-MarkbookMark</title>
<path d="M18.616 0.59c-4.402-0.738-8.921-0.738-13.323 0-1.608 0.27-2.889 1.504-3.212 3.105-1.477 7.334-1.558 14.881-0.238 22.246l0.538 2.998c0.166 0.925 1.293 1.294 1.974 0.647l6.489-6.164c0.622-0.591 1.599-0.591 2.221 0l6.489 6.164c0.681 0.647 1.808 0.278 1.974-0.647l0.538-2.998c1.32-7.364 1.24-14.911-0.237-22.246-0.323-1.601-1.603-2.836-3.212-3.105z"></path>
</svg>
