<!-- Generated by IcoMoon.io -->
<svg version="1.1" xmlns="http://www.w3.org/2000/svg" width="42" height="32" viewBox="0 0 42 32">
<title>menu</title>
<path fill="#918f8f" d="M0.32 1.28h40.32zM0.333 2.522l-0.013 0.038c-0.717 0-1.28-0.563-1.28-1.28 0-0.73 0.563-1.28 1.28-1.28l0.013 0.026v2.496zM40.614 0.026l0.026-0.026c0.704 0 1.28 0.55 1.28 1.28 0 0.717-0.576 1.28-1.28 1.28l-0.026-0.038v-2.496z"></path>
<path fill="none" stroke="#282828" stroke-linejoin="miter" stroke-linecap="round" stroke-miterlimit="4" stroke-width="2.56" d="M0.32 1.28h40.32"></path>
<path fill="#918f8f" d="M0.32 15.565h40.32zM0.333 16.819l-0.013 0.026c-0.717 0-1.28-0.563-1.28-1.28s0.563-1.28 1.28-1.28l0.013 0.026v2.509zM40.614 14.31l0.026-0.026c0.704 0 1.28 0.563 1.28 1.28s-0.576 1.28-1.28 1.28l-0.026-0.026v-2.509z"></path>
<path fill="none" stroke="#282828" stroke-linejoin="miter" stroke-linecap="round" stroke-miterlimit="4" stroke-width="2.56" d="M0.32 15.565h40.32"></path>
<path fill="#918f8f" d="M0.32 29.85h40.32zM0.333 31.104l-0.013 0.026c-0.717 0-1.28-0.563-1.28-1.28s0.563-1.28 1.28-1.28l0.013 0.026v2.509zM40.614 28.595l0.026-0.026c0.704 0 1.28 0.563 1.28 1.28s-0.576 1.28-1.28 1.28l-0.026-0.026v-2.509z"></path>
<path fill="none" stroke="#282828" stroke-linejoin="miter" stroke-linecap="round" stroke-miterlimit="4" stroke-width="2.56" d="M0.32 29.85h40.32"></path>
</svg>
