<!-- Generated by IcoMoon.io -->
<svg version="1.1" xmlns="http://www.w3.org/2000/svg" width="32" height="32" viewBox="0 0 32 32">
<title>Group-888</title>
<path d="M16.297 1.015c2.019 0.072 4.11 0.072 6.129 0.144 1.803 0.072 3.461 0.361 5.047 1.298 2.019 1.226 3.245 3.028 3.677 5.336 0.216 1.37 0.288 2.812 0.36 4.182 0.072 3.028 0 6.057 0 9.085 0 1.586-0.072 3.173-0.577 4.687-1.009 2.956-3.1 4.759-6.129 5.336-1.37 0.288-2.812 0.288-4.182 0.36-3.028 0.072-5.985 0-9.013 0-1.586 0-3.173-0.072-4.687-0.577-2.956-1.009-4.759-3.1-5.336-6.129-0.288-1.37-0.288-2.812-0.361-4.182-0.072-3.028 0-6.057 0-9.085 0-1.586 0.072-3.173 0.577-4.687 1.009-2.956 3.1-4.759 6.129-5.336 1.37-0.288 2.812-0.288 4.182-0.361s2.74-0.072 4.182-0.072zM28.772 15.941c-0.072 0 0 0 0 0-0.072-1.226-0.072-2.38-0.072-3.605 0-1.154-0.072-2.307-0.216-3.461-0.288-2.596-1.803-4.327-4.327-4.831-1.298-0.288-2.74-0.288-4.038-0.288-2.596-0.072-5.12-0.072-7.716 0-1.298 0-2.596 0.072-3.822 0.288-2.163 0.361-3.678 1.586-4.327 3.75-0.216 0.721-0.288 1.442-0.361 2.163-0.072 2.74-0.072 5.48-0.072 8.22 0 1.731 0.072 3.533 0.216 5.264 0.216 2.596 1.803 4.399 4.399 4.831 1.298 0.216 2.668 0.288 4.038 0.288 2.524 0.072 5.048 0 7.644 0 1.154 0 2.307-0.072 3.461-0.216 1.082-0.072 2.091-0.433 2.956-1.154 1.442-1.154 1.947-2.668 2.019-4.399 0.144-2.163 0.144-4.471 0.216-6.85z"></path>
<path d="M24.089 16.233c0 4.326-3.461 7.788-7.788 7.788s-7.788-3.461-7.788-7.86c0-4.254 3.533-7.716 7.86-7.716 4.254 0 7.716 3.461 7.716 7.788zM16.299 21.281c2.74 0 5.048-2.307 5.048-5.048s-2.308-5.048-5.048-5.048c-2.812 0-5.048 2.307-5.048 5.048-0.072 2.74 2.235 5.048 5.048 5.048z"></path>
<path d="M26.174 8.078c0 1.009-0.793 1.874-1.802 1.874s-1.874-0.865-1.802-1.874c0-1.009 0.793-1.802 1.802-1.802s1.802 0.793 1.802 1.802z"></path>
</svg>
