<!-- Generated by IcoMoon.io -->
<svg version="1.1" xmlns="http://www.w3.org/2000/svg" width="571" height="1024" viewBox="0 0 571 1024">
<title>arrow-right2</title>
<g id="icomoon-ignore">
</g>
<path fill="none" stroke-linejoin="round" stroke-linecap="round" stroke-miterlimit="1.5" stroke-width="58.7675" stroke="#000" d="M219.212 839.225c-28.845 50.174-64.549 97.54-98.629 144.174-29.812-48.899-57.867-98.986-87.008-148.255 35.882-50.396 62.344-108.734 88.215-164.752 39.903 59.427 72.365 116.704 97.422 168.832z"></path>
<path fill="none" stroke-linejoin="round" stroke-linecap="round" stroke-miterlimit="1.5" stroke-width="50.828" stroke="#000" d="M439.046 323.247c1.429-47.601-20.54-95.071-68.71-123.719-18.654-11.094-40.75-15.133-62.511-18.491 88.406-2.674 119.1-84.285 131.401-147.463-4.272 56.662 29.315 117.866 97.957 123.513-68.331 35.455-91.782 100.514-98.136 166.16z"></path>
</svg>
