<svg xmlns="http://www.w3.org/2000/svg" aria-hidden="true" style="position:absolute;width:0;height:0;overflow:hidden">
  <defs>
    <symbol id="icon-untitled" viewBox="0 0 32 32">
      <path d="M30.848 17.835H17.323v13.696h-5.397V17.835H-1.535v-4.907h13.461V-.832h5.397v13.76h13.525v4.907z"/>
      <path d="M30.848 17.835v-4.907H17.323V-.832h-5.397v13.76H-1.535v4.907h13.461v13.696h5.397V17.835h13.525z"/>
    </symbol>
    <symbol id="icon-Logologo" viewBox="0 0 35 32">
      <path d="M8.147 4.037h21.179a5.21 5.21 0 0 1 5.211 5.211v17.493a5.21 5.21 0 0 1-5.211 5.211H8.147a5.21 5.21 0 0 1-5.211-5.211V9.248a5.21 5.21 0 0 1 5.211-5.211z"/>
      <path stroke-width="1.506" d="M5.4 1.068h21.179a4.457 4.457 0 0 1 4.457 4.457v17.493a4.457 4.457 0 0 1-4.457 4.457H5.4a4.457 4.457 0 0 1-4.457-4.457V5.525A4.457 4.457 0 0 1 5.4 1.068z"/>
      <path stroke-linecap="round" stroke-linejoin="round" stroke-width="1.558" d="M24.576 9.326 7.454 9.25M24.568 12.755l-3.81-.019c-1.576-.008-2.851-1.55-2.846-3.441s1.288-3.42 2.864-3.412l3.81.019M13.17 20.292l-4.977-.058c-.408-.002-.75-.404-.758-.893l-.034-1.29c-.008-.512.336-.944.762-.941l4.921.058.084 3.125zM20.985 22.151l-7.034-.091c-.408-.002-.75-.404-.758-.893l-.091-4.013 11.427.146.008.511c.058 2.424-1.541 4.372-3.552 4.34z"/>
    </symbol>
    <symbol id="Path-Copy-4star" viewBox="0 0 30 32">
      <path d="m16.179 1.662 4.149 8.817 9.274 1.414c.24.037.439.214.514.455s.012.506-.161.684l-6.71 6.862 1.584 9.691c.042.25-.056.503-.252.652s-.457.169-.671.051l-8.296-4.574-8.296 4.576c-.215.119-.475.099-.671-.05s-.294-.402-.252-.652l1.584-9.693-6.712-6.862c-.174-.177-.236-.442-.161-.684s.274-.418.514-.455l9.274-1.414 4.151-8.817c.106-.228.327-.373.569-.373s.463.145.569.373z"/>
    </symbol>
    <symbol id="icon-Vectorvector" viewBox="0 0 50 32">
      <path stroke-linecap="round" stroke-linejoin="round" stroke-width="7.66" d="m5.63 6.318 20.425 20.425L46.48 6.318"/>
    </symbol>
    <symbol id="icon-StarstarVailet" viewBox="0 0 30 32">
      <path d="M18.279 25.304c1.926 1.054 3.62-.223 3.252-2.46l-.661-4.015 2.802-2.844c1.558-1.582.915-3.654-1.242-3.98l-3.872-.586-1.723-3.635c-.965-2.036-3.061-2.058-4.028-.018l-1.732 3.653-3.872.586c-2.154.326-2.803 2.396-1.242 3.98l2.802 2.844-.661 4.015c-.368 2.233 1.323 3.516 3.252 2.46l3.463-1.896 3.463 1.896z"/>
    </symbol>
    <symbol id="icon-Iconheart" viewBox="0 0 37 32">
      <path d="M.449 10.924c0-5.506 4.83-9.746 10.5-9.746 2.923 0 5.495 1.37 7.34 3.144 1.846-1.773 4.417-3.144 7.34-3.144 5.67 0 10.5 4.239 10.5 9.746 0 3.772-1.608 7.089-3.837 9.892-2.224 2.799-5.134 5.174-7.92 7.105-1.064.737-2.141 1.417-3.126 1.919-.925.471-1.989.903-2.957.903s-2.032-.432-2.957-.903c-.985-.502-2.062-1.182-3.126-1.919-2.786-1.93-5.696-4.306-7.921-7.105-2.228-2.804-3.837-6.12-3.837-9.892zm10.5-6.687c-4.239 0-7.442 3.118-7.442 6.687 0 2.862 1.215 5.526 3.173 7.989 1.962 2.468 4.601 4.646 7.268 6.493 1.009.699 1.959 1.294 2.772 1.708.873.445 1.379.57 1.569.57s.696-.125 1.569-.57c.813-.414 1.763-1.009 2.772-1.708 2.667-1.847 5.306-4.025 7.268-6.493 1.958-2.463 3.173-5.128 3.173-7.989 0-3.569-3.203-6.687-7.442-6.687-2.435 0-4.708 1.455-6.128 3.301a1.53 1.53 0 0 1-2.424 0c-1.42-1.846-3.693-3.301-6.128-3.301z"/>
    </symbol>
    <symbol id="icon-Book-MarkbookMark" viewBox="0 0 23 32">
      <path d="M18.616.59a40.363 40.363 0 0 0-13.323 0 3.943 3.943 0 0 0-3.212 3.105 59.506 59.506 0 0 0-.238 22.246l.538 2.998a1.18 1.18 0 0 0 1.974.647l6.489-6.164a1.613 1.613 0 0 1 2.221 0l6.489 6.164a1.18 1.18 0 0 0 1.974-.647l.538-2.998a59.506 59.506 0 0 0-.237-22.246A3.94 3.94 0 0 0 18.617.59z"/>
    </symbol>
    <symbol id="icon-arrow-rightarrowRight" viewBox="0 0 32 32">
      <path stroke-linecap="round" stroke-linejoin="round" stroke-width="2.569" d="M7.53 16.122h17.984M16.519 7.132l8.992 8.992-8.992 8.992"/>
    </symbol>
    <symbol id="icon-Vector-14arrovLeft" viewBox="0 0 88 32">
      <path d="M87.423 3.324a.685.685 0 1 0-1.303-.425l1.303.424zM69.685 19.871zM49.371 8.545zm6.085-7.362zm6.459 5.371zM44.683 24.749zM26.18 13.077zm4.402-5.671zm-13.33 23.392zM.985 20.688l.155-.667c-.244-.057-.499.024-.665.21s-.219.448-.137.684l.647-.227zm5.999 2.1a.685.685 0 1 0 .311-1.335l-.311 1.335zm-4.451 4.389a.685.685 0 0 0 1.293-.453l-1.293.453zM86.772 3.112 86.12 2.9v.001l-.002.006a1.313 1.313 0 0 0-.009.028l-.04.117c-.037.104-.092.258-.168.457a30.28 30.28 0 0 1-.698 1.667 33.511 33.511 0 0 1-2.94 5.2c-2.69 3.877-6.82 7.893-12.684 8.818l.214 1.354c6.395-1.009 10.808-5.372 13.597-9.391a34.953 34.953 0 0 0 3.062-5.415c.328-.724.57-1.324.73-1.745.081-.21.14-.376.18-.491l.046-.132.012-.036.003-.01.001-.003.001-.001-.652-.213zM69.578 19.194c-4.58.723-9.494-.122-13.251-2.087-3.767-1.971-6.242-4.988-6.271-8.567l-1.37.011c.034 4.279 2.993 7.671 7.006 9.771 4.023 2.105 9.235 2.994 14.1 2.227l-.214-1.354zM50.057 8.539c-.008-1.049.426-2.685 1.362-4.087.927-1.388 2.282-2.461 4.085-2.586L55.409.499c-2.353.163-4.049 1.572-5.131 3.192-1.073 1.607-1.603 3.509-1.592 4.858l1.37-.011zm5.447-6.672c1.705-.118 2.926.555 3.838 1.529.933.996 1.536 2.303 1.929 3.39l1.289-.466c-.416-1.152-1.096-2.665-2.218-3.862C59.2 1.239 57.596.347 55.409.498l.095 1.367zm5.767 4.919c1.565 4.333-.104 8.334-3.469 11.458-3.377 3.134-8.387 5.293-13.194 5.824l.15 1.362c5.068-.56 10.362-2.827 13.976-6.181 3.626-3.365 5.636-7.917 3.826-12.928l-1.289.466zM44.607 24.068c-4.123.455-8.479-.312-11.842-2.202-3.348-1.882-5.674-4.848-5.902-8.828l-1.368.078c.26 4.549 2.94 7.888 6.598 9.944 3.644 2.048 8.295 2.852 12.664 2.37l-.15-1.362zm-17.743-11.03c-.072-1.248.229-2.304.852-3.128.624-.826 1.617-1.479 3.034-1.839l-.338-1.328c-1.655.421-2.942 1.219-3.79 2.341-.849 1.124-1.214 2.513-1.127 4.033l1.368-.078zM30.75 8.07c1.296-.329 2.344-.066 3.228.57.913.657 1.684 1.737 2.313 3.082l1.241-.581c-.68-1.453-1.577-2.766-2.754-3.613-1.205-.867-2.668-1.218-4.366-.786l.338 1.328zm5.542 3.653c2.107 4.503-.121 9.223-4.314 12.851-4.183 3.62-10.075 5.907-14.672 5.541l-.109 1.366c5.05.402 11.291-2.075 15.677-5.871 4.376-3.787 7.155-9.134 4.659-14.468l-1.241.581zM17.306 30.114c-3.568-.284-7.496-2.695-10.604-5.137a50.218 50.218 0 0 1-4.837-4.357 19.557 19.557 0 0 1-.282-.296l-.071-.076a.198.198 0 0 1-.017-.019l-.004-.004-.001-.001-.506.463-.505.463c.001 0 0 0 0 0l.002.002.006.006.02.022.078.083c.068.072.167.177.296.31a51.372 51.372 0 0 0 4.975 4.482c3.133 2.462 7.338 5.107 11.342 5.425l.109-1.366zM.829 21.355l6.155 1.433.311-1.335L1.14 20.02l-.311 1.335zm-.491-.441 2.195 6.262 1.293-.453-2.195-6.262-1.293.453z"/>
    </symbol>
    <symbol id="icon-Illustration-01screen" viewBox="0 0 28 32">
      <path stroke-linecap="round" stroke-linejoin="round" stroke-miterlimit="1.5" stroke-width="1.34" d="M15.11 4.429c-4.756 2.187-9.216 4.872-13.857 7.263M27.781 11.719c-8.507.854-17.053 2.648-25.32 4.771M21.955 25.43c-5.424-2.236-13.974-3.005-19.98-3.912"/>
    </symbol>
    <symbol id="icon-Illustration-01illustr" viewBox="0 0 50 32">
      <path stroke-linecap="round" stroke-linejoin="round" stroke-miterlimit="1.5" stroke-width="3.015" d="M4.87 15.335c4.101-4.187 9.129-4.886 14.228-5.355 6.365-.586 12.842-.816 17.768-7.029M3.279 27.105c3.737-5.317 9.172-8.459 15.592-9.168 3.359-.37 6.765-.002 10.103-.636 7.52-1.429 14.505-5.994 17.78-13.054M36.143 22.543c-2.49 1.596-5.192 2.812-8.159 3.161-5.909.694-12.098-.227-16.585 4.554"/>
    </symbol>
    <symbol id="icon-VectorstarGrean" viewBox="0 0 34 32">
      <path d="M32.326 12.27H20.131L16.377.674 12.601 12.27.406 12.248l9.863 7.175-3.776 11.596 9.863-7.175 9.863 7.175-3.754-11.596 9.863-7.153z"/>
    </symbol>
    <symbol id="icon-Path-13" viewBox="0 0 16 32">
      <path d="M14.47 16.192h-4.24v15.175H3.907V16.192H.932v-5.356h2.975V7.34c0-2.455 1.19-6.323 6.323-6.323h4.686v5.207h-3.347c-.521 0-1.339.298-1.339 1.488v3.124h4.761l-.521 5.356z"/>
    </symbol>
    <symbol id="icon-Group-888" viewBox="0 0 32 32">
      <path d="M16.297 1.015c2.019.072 4.11.072 6.129.144 1.803.072 3.461.361 5.047 1.298 2.019 1.226 3.245 3.028 3.677 5.336.216 1.37.288 2.812.36 4.182.072 3.028 0 6.057 0 9.085 0 1.586-.072 3.173-.577 4.687-1.009 2.956-3.1 4.759-6.129 5.336-1.37.288-2.812.288-4.182.36-3.028.072-5.985 0-9.013 0-1.586 0-3.173-.072-4.687-.577-2.956-1.009-4.759-3.1-5.336-6.129-.288-1.37-.288-2.812-.361-4.182-.072-3.028 0-6.057 0-9.085 0-1.586.072-3.173.577-4.687 1.009-2.956 3.1-4.759 6.129-5.336 1.37-.288 2.812-.288 4.182-.361s2.74-.072 4.182-.072zm12.475 14.926c-.072 0 0 0 0 0-.072-1.226-.072-2.38-.072-3.605 0-1.154-.072-2.307-.216-3.461-.288-2.596-1.803-4.327-4.327-4.831-1.298-.288-2.74-.288-4.038-.288-2.596-.072-5.12-.072-7.716 0-1.298 0-2.596.072-3.822.288-2.163.361-3.678 1.586-4.327 3.75-.216.721-.288 1.442-.361 2.163-.072 2.74-.072 5.48-.072 8.22 0 1.731.072 3.533.216 5.264.216 2.596 1.803 4.399 4.399 4.831 1.298.216 2.668.288 4.038.288 2.524.072 5.048 0 7.644 0 1.154 0 2.307-.072 3.461-.216 1.082-.072 2.091-.433 2.956-1.154 1.442-1.154 1.947-2.668 2.019-4.399.144-2.163.144-4.471.216-6.85z"/>
      <path d="M24.089 16.233c0 4.326-3.461 7.788-7.788 7.788s-7.788-3.461-7.788-7.86c0-4.254 3.533-7.716 7.86-7.716 4.254 0 7.716 3.461 7.716 7.788zm-7.79 5.048c2.74 0 5.048-2.307 5.048-5.048s-2.308-5.048-5.048-5.048c-2.812 0-5.048 2.307-5.048 5.048-.072 2.74 2.235 5.048 5.048 5.048zM26.174 8.078c0 1.009-.793 1.874-1.802 1.874s-1.874-.865-1.802-1.874c0-1.009.793-1.802 1.802-1.802s1.802.793 1.802 1.802z"/>
    </symbol>
    <symbol id="icon-Path-7" viewBox="0 0 34 32">
      <path d="M32.438 20.019v11.955h-6.981V20.805c0-2.792-.96-4.712-3.49-4.712-1.92 0-3.054 1.309-3.578 2.531-.175.436-.262 1.047-.262 1.658v11.693h-6.981s.087-18.935 0-20.855h6.981v2.967s0 .087-.087.087h.087v-.087c.96-1.396 2.531-3.49 6.283-3.49 4.538 0 8.028 3.054 8.028 9.424zM3.99 1.083C1.635 1.083.064 2.653.064 4.66s1.483 3.577 3.838 3.577h.087c2.443 0 3.926-1.57 3.926-3.577-.087-2.006-1.57-3.577-3.926-3.577zM.416 31.975H7.31V11.12H.416v20.855z"/>
    </symbol>
    <symbol id="icon-Path-6" viewBox="0 0 37 32">
      <path d="M35.041 5.095c-1.306.571-2.612.979-4.081 1.143 1.469-.898 2.612-2.285 3.101-3.917-1.387.816-2.938 1.387-4.489 1.714-1.306-1.387-3.183-2.285-5.223-2.285a7.105 7.105 0 0 0-7.1 7.1c0 .571.082 1.143.163 1.632-5.958-.326-11.181-3.101-14.69-7.427-.653 1.061-.979 2.285-.979 3.591a7.137 7.137 0 0 0 3.183 5.958 6.538 6.538 0 0 1-3.265-.898v.082c0 3.428 2.448 6.366 5.713 7.019a6.963 6.963 0 0 1-1.877.245c-.49 0-.898-.082-1.306-.163.898 2.856 3.509 4.897 6.692 4.978-2.448 1.877-5.468 3.02-8.814 3.02-.571 0-1.143 0-1.714-.082 3.183 2.04 6.856 3.183 10.936 3.183 13.14 0 20.24-10.854 20.24-20.24V8.85c1.387-1.061 2.612-2.367 3.51-3.754z"/>
    </symbol>
  </defs>
</svg>