<!-- Generated by IcoMoon.io -->
<svg version="1.1" xmlns="http://www.w3.org/2000/svg" width="37" height="32" viewBox="0 0 37 32">
<title>Iconheart</title>
<path d="M0.449 10.924c0-5.506 4.83-9.746 10.5-9.746 2.923 0 5.495 1.37 7.34 3.144 1.846-1.773 4.417-3.144 7.34-3.144 5.67 0 10.5 4.239 10.5 9.746 0 3.772-1.608 7.089-3.837 9.892-2.224 2.799-5.134 5.174-7.92 7.105-1.064 0.737-2.141 1.417-3.126 1.919-0.925 0.471-1.989 0.903-2.957 0.903s-2.032-0.432-2.957-0.903c-0.985-0.502-2.062-1.182-3.126-1.919-2.786-1.93-5.696-4.306-7.921-7.105-2.228-2.804-3.837-6.12-3.837-9.892zM10.949 4.237c-4.239 0-7.442 3.118-7.442 6.687 0 2.862 1.215 5.526 3.173 7.989 1.962 2.468 4.601 4.646 7.268 6.493 1.009 0.699 1.959 1.294 2.772 1.708 0.873 0.445 1.379 0.57 1.569 0.57s0.696-0.125 1.569-0.57c0.813-0.414 1.763-1.009 2.772-1.708 2.667-1.847 5.306-4.025 7.268-6.493 1.958-2.463 3.173-5.128 3.173-7.989 0-3.569-3.203-6.687-7.442-6.687-2.435 0-4.708 1.455-6.128 3.301-0.289 0.376-0.737 0.597-1.212 0.597s-0.923-0.221-1.212-0.597c-1.42-1.846-3.693-3.301-6.128-3.301z"></path>
</svg>
