<!-- Generated by IcoMoon.io -->
<svg version="1.1" xmlns="http://www.w3.org/2000/svg" width="35" height="32" viewBox="0 0 35 32">
<title>Logologo</title>
<path d="M8.147 4.037h21.179c2.878 0 5.211 2.333 5.211 5.211v17.493c0 2.878-2.333 5.211-5.211 5.211h-21.179c-2.878 0-5.211-2.333-5.211-5.211v-17.493c0-2.878 2.333-5.211 5.211-5.211z"></path>
<path stroke-linejoin="miter" stroke-linecap="butt" stroke-miterlimit="4" stroke-width="1.5065" stroke="#000" fill="#000" d="M5.4 1.068h21.179c2.462 0 4.457 1.996 4.457 4.457v17.493c0 2.462-1.996 4.457-4.457 4.457h-21.179c-2.462 0-4.457-1.996-4.457-4.457v-17.493c0-2.462 1.996-4.457 4.457-4.457z"></path>
<path fill="none" stroke-linejoin="round" stroke-linecap="round" stroke-miterlimit="4" stroke-width="1.5583" stroke="#000" d="M24.576 9.326l-17.122-0.076"></path>
<path fill="none" stroke-linejoin="round" stroke-linecap="round" stroke-miterlimit="4" stroke-width="1.5583" stroke="#000" d="M24.568 12.755l-3.81-0.019c-1.576-0.008-2.851-1.55-2.846-3.441s1.288-3.42 2.864-3.412l3.81 0.019"></path>
<path fill="none" stroke-linejoin="round" stroke-linecap="round" stroke-miterlimit="4" stroke-width="1.5583" stroke="#000" d="M13.17 20.292l-4.977-0.058c-0.408-0.002-0.75-0.404-0.758-0.893l-0.034-1.29c-0.008-0.512 0.336-0.944 0.762-0.941l4.921 0.058 0.084 3.125z"></path>
<path fill="none" stroke-linejoin="round" stroke-linecap="round" stroke-miterlimit="4" stroke-width="1.5583" stroke="#000" d="M20.985 22.151l-7.034-0.091c-0.408-0.002-0.75-0.404-0.758-0.893l-0.091-4.013 11.427 0.146 0.008 0.511c0.058 2.424-1.541 4.372-3.552 4.34z"></path>
</svg>
