<!-- Generated by IcoMoon.io -->
<svg version="1.1" xmlns="http://www.w3.org/2000/svg" width="37" height="32" viewBox="0 0 37 32">
<title>Path-6</title>
<path d="M35.041 5.095c-1.306 0.571-2.612 0.979-4.081 1.143 1.469-0.898 2.612-2.285 3.101-3.917-1.387 0.816-2.938 1.387-4.489 1.714-1.306-1.387-3.183-2.285-5.223-2.285-3.917 0-7.1 3.183-7.1 7.1 0 0.571 0.082 1.143 0.163 1.632-5.958-0.326-11.181-3.101-14.69-7.427-0.653 1.061-0.979 2.285-0.979 3.591 0 2.448 1.224 4.652 3.183 5.958-1.143 0-2.285-0.326-3.265-0.898v0.082c0 3.428 2.448 6.366 5.713 7.019-0.571 0.163-1.224 0.245-1.877 0.245-0.49 0-0.898-0.082-1.306-0.163 0.898 2.856 3.509 4.897 6.692 4.978-2.448 1.877-5.468 3.020-8.814 3.020-0.571 0-1.143 0-1.714-0.082 3.183 2.040 6.856 3.183 10.936 3.183 13.14 0 20.24-10.854 20.24-20.24 0-0.326 0-0.653 0-0.898 1.387-1.061 2.612-2.367 3.51-3.754z"></path>
</svg>
