<!-- Generated by IcoMoon.io -->
<svg version="1.1" xmlns="http://www.w3.org/2000/svg" width="34" height="32" viewBox="0 0 34 32">
<title>Path-7</title>
<path d="M32.438 20.019v11.955h-6.981v-11.169c0-2.792-0.96-4.712-3.49-4.712-1.92 0-3.054 1.309-3.578 2.531-0.175 0.436-0.262 1.047-0.262 1.658v11.693h-6.981c0 0 0.087-18.935 0-20.855h6.981v2.967c0 0 0 0.087-0.087 0.087h0.087v-0.087c0.96-1.396 2.531-3.49 6.283-3.49 4.538 0 8.028 3.054 8.028 9.424zM3.99 1.083c-2.355 0-3.926 1.57-3.926 3.577s1.483 3.577 3.838 3.577h0.087c2.443 0 3.926-1.57 3.926-3.577-0.087-2.006-1.57-3.577-3.926-3.577zM0.416 31.975h6.894v-20.855h-6.894v20.855z"></path>
</svg>
