<!-- Generated by IcoMoon.io -->
<svg version="1.1" xmlns="http://www.w3.org/2000/svg" width="30" height="32" viewBox="0 0 30 32" >
<title>Path-Copy-4star</title>
<path d="M16.179 1.662l4.149 8.817 9.274 1.414c0.24 0.037 0.439 0.214 0.514 0.455s0.012 0.506-0.161 0.684l-6.71 6.862 1.584 9.691c0.042 0.25-0.056 0.503-0.252 0.652s-0.457 0.169-0.671 0.051l-8.296-4.574-8.296 4.576c-0.215 0.119-0.475 0.099-0.671-0.050s-0.294-0.402-0.252-0.652l1.584-9.693-6.712-6.862c-0.174-0.177-0.236-0.442-0.161-0.684s0.274-0.418 0.514-0.455l9.274-1.414 4.151-8.817c0.106-0.228 0.327-0.373 0.569-0.373s0.463 0.145 0.569 0.373z"></path>
</svg>
