<!-- Generated by IcoMoon.io -->
<svg version="1.1" xmlns="http://www.w3.org/2000/svg" width="88" height="32" viewBox="0 0 88 32">
<title>Vector-14arrovLeft</title>
<path d="M87.423 3.324c0.117-0.36-0.079-0.747-0.439-0.864s-0.747 0.080-0.864 0.439l1.303 0.424zM69.685 19.871v0zM49.371 8.545v0zM55.456 1.183v0zM61.915 6.554v0zM44.683 24.749v0zM26.18 13.077v0zM30.582 7.406v0zM17.252 30.798v0zM0.985 20.688l0.155-0.667c-0.244-0.057-0.499 0.024-0.665 0.21s-0.219 0.448-0.137 0.684l0.647-0.227zM6.984 22.788c0.369 0.086 0.737-0.143 0.823-0.512s-0.143-0.737-0.512-0.823l-0.311 1.335zM2.533 27.177c0.125 0.357 0.516 0.545 0.873 0.42s0.545-0.516 0.42-0.873l-1.293 0.453zM86.772 3.112c-0.652-0.212-0.652-0.212-0.652-0.212s0-0 0 0 0 0.001 0 0.001-0.001 0.003-0.002 0.006-0.005 0.015-0.009 0.028c-0.009 0.026-0.022 0.065-0.040 0.117-0.037 0.104-0.092 0.258-0.168 0.457-0.152 0.398-0.383 0.971-0.698 1.667-0.632 1.393-1.599 3.268-2.94 5.2-2.69 3.877-6.82 7.893-12.684 8.818l0.214 1.354c6.395-1.009 10.808-5.372 13.597-9.391 1.399-2.016 2.405-3.968 3.062-5.415 0.328-0.724 0.57-1.324 0.73-1.745 0.081-0.21 0.14-0.376 0.18-0.491 0.020-0.057 0.036-0.102 0.046-0.132 0.005-0.015 0.009-0.027 0.012-0.036 0.001-0.004 0.002-0.007 0.003-0.010 0.001-0.001 0.001-0.002 0.001-0.003s0.001-0.001 0.001-0.001 0-0.001-0.652-0.213zM69.578 19.194c-4.58 0.723-9.494-0.122-13.251-2.087-3.767-1.971-6.242-4.988-6.271-8.567l-1.37 0.011c0.034 4.279 2.993 7.671 7.006 9.771 4.023 2.105 9.235 2.994 14.1 2.227l-0.214-1.354zM50.057 8.539c-0.008-1.049 0.426-2.685 1.362-4.087 0.927-1.388 2.282-2.461 4.085-2.586l-0.095-1.367c-2.353 0.163-4.049 1.572-5.131 3.192-1.073 1.607-1.603 3.509-1.592 4.858l1.37-0.011zM55.504 1.867c1.705-0.118 2.926 0.555 3.838 1.529 0.933 0.996 1.536 2.303 1.929 3.39l1.289-0.466c-0.416-1.152-1.096-2.665-2.218-3.862-1.142-1.219-2.746-2.111-4.933-1.96l0.095 1.367zM61.271 6.786c1.565 4.333-0.104 8.334-3.469 11.458-3.377 3.134-8.387 5.293-13.194 5.824l0.15 1.362c5.068-0.56 10.362-2.827 13.976-6.181 3.626-3.365 5.636-7.917 3.826-12.928l-1.289 0.466zM44.607 24.068c-4.123 0.455-8.479-0.312-11.842-2.202-3.348-1.882-5.674-4.848-5.902-8.828l-1.368 0.078c0.26 4.549 2.94 7.888 6.598 9.944 3.644 2.048 8.295 2.852 12.664 2.37l-0.15-1.362zM26.864 13.038c-0.072-1.248 0.229-2.304 0.852-3.128 0.624-0.826 1.617-1.479 3.034-1.839l-0.338-1.328c-1.655 0.421-2.942 1.219-3.79 2.341-0.849 1.124-1.214 2.513-1.127 4.033l1.368-0.078zM30.75 8.070c1.296-0.329 2.344-0.066 3.228 0.57 0.913 0.657 1.684 1.737 2.313 3.082l1.241-0.581c-0.68-1.453-1.577-2.766-2.754-3.613-1.205-0.867-2.668-1.218-4.366-0.786l0.338 1.328zM36.292 11.723c2.107 4.503-0.121 9.223-4.314 12.851-4.183 3.62-10.075 5.907-14.672 5.541l-0.109 1.366c5.050 0.402 11.291-2.075 15.677-5.871 4.376-3.787 7.155-9.134 4.659-14.468l-1.241 0.581zM17.306 30.114c-3.568-0.284-7.496-2.695-10.604-5.137-1.537-1.208-2.843-2.399-3.765-3.288-0.46-0.444-0.824-0.812-1.072-1.069-0.124-0.128-0.219-0.228-0.282-0.296-0.032-0.034-0.056-0.059-0.071-0.076-0.008-0.008-0.014-0.015-0.017-0.019-0.002-0.002-0.003-0.003-0.004-0.004s-0.001-0.001-0.001-0.001-0-0-0-0 0 0-0.506 0.463-0.506 0.463-0.505 0.463 0 0 0 0 0.001 0.001 0.002 0.002 0.003 0.003 0.006 0.006 0.012 0.012 0.020 0.022c0.018 0.019 0.044 0.047 0.078 0.083 0.068 0.072 0.167 0.177 0.296 0.31 0.257 0.266 0.632 0.646 1.105 1.102 0.945 0.912 2.287 2.136 3.87 3.38 3.133 2.462 7.338 5.107 11.342 5.425l0.109-1.366zM0.829 21.355l6.155 1.433 0.311-1.335-6.155-1.433-0.311 1.335zM0.338 20.914l2.195 6.262 1.293-0.453-2.195-6.262-1.293 0.453z"></path>
</svg>
